<?xml version="1.0" encoding="UTF-8"?>
<svg xmlns="http://www.w3.org/2000/svg" id="Ebene_1" version="1.1" viewBox="0 0 201.9 69.76">
  <defs>
    <style>
      .st0 {
        fill: #1a1a18;
      }

      .st1 {
        fill: #f9d900;
      }

      .st2 {
        fill: #00468e;
      }

      .st3 {
        fill: #e63121;
      }
    </style>
  </defs>
  <g>
    <path class="st3" d="M179.02,67.52c-.98,0-1.97-.01-2.95,0-.67,0-1.2-.22-1.54-.82-.35-.61-.15-1.18.21-1.68,1.17-1.64,2.25-3.34,3.15-5.15,1.51-3.03,2.56-6.18,2.6-9.62.03-1.77-.36-3.44-1.18-5-1-1.88-2.6-2.59-4.95-2.28-1.73.23-3.46.49-5.2.67-3.01.31-5.89-.08-8.48-1.82-2.15-1.45-3.14-3.58-3.34-6.12-.2-2.44.45-4.76,1.14-7.06.13-.45.26-.9.36-1.35.24-1.08-.35-1.74-1.45-1.57-.92.14-1.84.14-2.74-.07-2.52-.58-2.9-1.9-2.48-4.05.38-1.94,1.85-2.98,3.49-3.71,4.04-1.8,8.4-.3,10.68,3.55,1.19,2,1.26,4.11.75,6.29-.29,1.23-.77,2.41-1.03,3.65-.42,2.07.52,3.29,2.6,3.28,1.8,0,3.56-.41,5.34-.5,2.23-.11,4.46-.22,6.65.36,2.43.66,4.14,2.29,5.53,4.35,1.75,2.58,2.48,5.52,2.9,8.55.54,3.84-.11,7.58-1.04,11.28-.62,2.5-1.62,4.84-2.99,7-.72,1.12-1.68,1.85-3.08,1.82-.98-.02-1.97,0-2.95,0v-.02Z"></path>
    <path class="st0" d="M143.67,67.51c-.96,0-1.92-.01-2.89,0-1.34.02-2.46-1.05-2.36-2.49.13-1.87.31-3.74.5-5.61.17-1.61.27-3.22.42-4.83.2-2.25.43-4.49.63-6.74.15-1.7.27-3.4.42-5.1.16-1.79.34-3.57.5-5.35.15-1.68.27-3.36.42-5.03.2-2.32.42-4.63.63-6.95.1-1.17.18-2.34.29-3.51.18-1.83.94-3.31,2.68-4.05,2.75-1.17,5.92.88,6.1,3.65.14,2.26-.1,4.5-.25,6.74-.06.91-.02,1.81-.12,2.72-.13,1.23-.11,2.48-.16,3.72-.11,2.7-.32,5.39-.42,8.09-.05,1.48-.17,2.96-.24,4.44-.15,2.96-.34,5.92-.51,8.89-.05.82-.04,1.64-.11,2.46-.12,1.3-.05,2.62-.19,3.92-.11,1.04-.02,2.08-.21,3.11-.22,1.18-1.01,1.91-2.19,1.92-.98,0-1.97,0-2.95,0"></path>
    <path class="st2" d="M192.24,21.83c.22-2.24,1.36-3.49,3.55-3.91,2.29-.44,4.37,1.12,4.93,2.9.24.76.26,1.53.27,2.31.12,5.18.23,10.37.34,15.55.19,8.7.38,17.4.57,26.09.04,1.94-.85,2.88-2.76,2.88-1.66,0-3.32-.03-4.98-.05-1.83-.02-2.77-.87-2.79-2.74-.02-2.49.06-4.98.11-7.47.1-4.89.19-9.78.3-14.67.07-3.18.3-19.28.46-20.88"></path>
    <path class="st1" d="M170.74.04c1.59-.08,3.19-.05,4.76.15,2.35.3,4.74.51,6.92,1.58.71.35,1.37.79,1.86,1.44.31.41.34.9.16,1.32-.17.41-.62.6-1.09.58-1.15-.05-2.31.13-3.45-.12-.21-.05-.44-.03-.65,0-.72.08-.91.41-.69,1.12.23.75.78,1.29,1.17,1.93.13.21.22.43.28.65.2.71-.16,1.18-.88,1.1-.9-.1-1.79-.22-2.67-.42-1.08-.24-2.18-.29-3.27-.34-.96-.05-1.93-.09-2.9-.07-2.62.05-5.17.5-7.7,1.16-2.33.61-4.55,1.51-6.68,2.62-1.76.91-3.33,2.13-4.94,3.29-2.45,1.77-6.19.76-7.02-2.89-.35-1.52.53-3.6,1.78-4.55,1.31-.99,2.64-1.93,4.04-2.77,2.12-1.28,4.32-2.37,6.64-3.24,1.85-.69,3.74-1.23,5.65-1.66,1.59-.35,3.2-.58,4.83-.76,1.29-.14,2.57-.04,3.85-.1"></path>
  </g>
  <g>
    <path class="st0" d="M46.96,18.99c1.93,0,2.85.73,2.85,2.11,0,.86-.56,1.66-1.37,1.85,1.04.19,1.63.89,1.63,1.94,0,1.2-.73,2.37-2.85,2.37h-2.79v-8.28h2.53ZM45.46,22.51h1.68c1.16,0,1.64-.59,1.64-1.4,0-.73-.37-1.19-1.82-1.19h-1.5v2.59ZM45.46,26.33h1.76c1.25,0,1.82-.54,1.82-1.44,0-1-.65-1.45-2.01-1.45h-1.57v2.89Z"></path>
    <path class="st0" d="M55.71,26.36c-.42.73-1.06,1.01-2.1,1.01-1.61,0-2.57-1.04-2.57-2.71v-.79c0-1.7.8-2.69,2.37-2.69s2.37.97,2.37,2.69v.62h-3.79v.17c0,1.03.49,1.85,1.54,1.85.78,0,1.17-.23,1.43-.67l.74.53ZM52,23.65h2.82c-.05-1.01-.49-1.61-1.4-1.61s-1.36.61-1.42,1.61Z"></path>
    <path class="st0" d="M60.45,22.57c-.25-.35-.56-.5-1.01-.5-.73,0-1.28.55-1.28,1.45v3.75h-.96v-6h.96v.59c.25-.42.66-.68,1.39-.68.82,0,1.33.28,1.72.82l-.82.58Z"></path>
    <path class="st0" d="M66.67,27.27h-.96v-.59c-.3.46-.72.68-1.61.68-1.28,0-2.18-.67-2.18-2.35v-3.74h.96v3.73c0,1.21.66,1.48,1.37,1.48.9,0,1.46-.64,1.46-1.46v-3.74h.96v6Z"></path>
    <path class="st0" d="M71.29,19.91h-.96c-.8,0-.9.35-.9,1.18v.19h1.14v.86h-1.14v5.13h-.96v-5.13h-.77v-.86h.77v-.43c0-1.25.41-1.85,1.82-1.85h1.95v6.19c0,.65.04,1.2,1.02,1.2v.89c-1.51,0-1.98-.6-1.98-1.85v-5.52Z"></path>
    <path class="st0" d="M74.47,18.99h1.08v1.08h-1.08v-1.08ZM74.54,21.27h.96v6h-.96v-6Z"></path>
    <path class="st0" d="M81.6,26.36c-.37.7-1.1,1.01-2.08,1.01-1.64,0-2.59-1.06-2.59-2.71v-.79c0-1.7.97-2.69,2.59-2.69.9,0,1.64.32,2.08.94l-.76.53c-.26-.38-.77-.6-1.32-.6-1.03,0-1.63.7-1.63,1.82v.79c0,1.03.48,1.85,1.63,1.85.56,0,1.08-.19,1.33-.67l.74.53Z"></path>
    <path class="st0" d="M82.56,18.99h.96v2.87c.3-.46.72-.68,1.61-.68,1.28,0,2.18.67,2.18,2.35v3.74h-.96v-3.73c0-1.21-.66-1.48-1.37-1.48-.9,0-1.46.64-1.46,1.46v3.74h-.96v-8.28Z"></path>
    <path class="st0" d="M93.24,26.36c-.42.73-1.06,1.01-2.1,1.01-1.61,0-2.57-1.04-2.57-2.71v-.79c0-1.7.8-2.69,2.37-2.69s2.37.97,2.37,2.69v.62h-3.79v.17c0,1.03.49,1.85,1.54,1.85.78,0,1.17-.23,1.43-.67l.74.53ZM89.53,23.65h2.82c-.05-1.01-.49-1.61-1.4-1.61s-1.36.61-1.41,1.61Z"></path>
    <path class="st0" d="M102.28,20.83c-.44-.58-.92-1-1.97-1-.96,0-1.61.43-1.61,1.3,0,.98.74,1.32,1.96,1.54,1.59.28,2.57.85,2.57,2.39,0,1.08-.72,2.31-2.78,2.31-1.34,0-2.33-.46-2.95-1.36l.85-.59c.54.64,1.02,1.01,2.1,1.01,1.36,0,1.75-.62,1.75-1.33,0-.78-.4-1.31-1.96-1.55-1.56-.24-2.57-.98-2.57-2.42,0-1.19.78-2.23,2.67-2.23,1.32,0,2.15.44,2.73,1.36l-.8.58Z"></path>
    <path class="st0" d="M108.95,26.36c-.37.7-1.1,1.01-2.08,1.01-1.64,0-2.59-1.06-2.59-2.71v-.79c0-1.7.97-2.69,2.59-2.69.9,0,1.64.32,2.08.94l-.76.53c-.26-.38-.77-.6-1.32-.6-1.03,0-1.63.7-1.63,1.82v.79c0,1.03.48,1.85,1.63,1.85.56,0,1.08-.19,1.33-.67l.74.53Z"></path>
    <path class="st0" d="M109.91,18.99h.96v2.87c.3-.46.72-.68,1.61-.68,1.28,0,2.18.67,2.18,2.35v3.74h-.96v-3.73c0-1.21-.66-1.48-1.37-1.48-.9,0-1.46.64-1.46,1.46v3.74h-.96v-8.28Z"></path>
    <path class="st0" d="M120.97,27.27h-.96v-.59c-.3.46-.72.68-1.61.68-1.28,0-2.18-.67-2.18-2.35v-3.74h.96v3.73c0,1.21.66,1.48,1.37,1.48.9,0,1.46-.64,1.46-1.46v-3.74h.96v6Z"></path>
    <path class="st0" d="M122.53,18.99h.96v6.19c0,.65.04,1.2,1.02,1.2v.89c-1.51,0-1.98-.6-1.98-1.85v-6.43Z"></path>
    <path class="st0" d="M130.19,26.36c-.42.73-1.06,1.01-2.1,1.01-1.61,0-2.57-1.04-2.57-2.71v-.79c0-1.7.8-2.69,2.38-2.69s2.38.97,2.38,2.69v.62h-3.79v.17c0,1.03.49,1.85,1.54,1.85.78,0,1.17-.23,1.43-.67l.74.53ZM126.48,23.65h2.82c-.05-1.01-.49-1.61-1.4-1.61s-1.36.61-1.41,1.61Z"></path>
    <path class="st0" d="M4.74,31.99h.96v8.28h-.96v-.53c-.32.42-.84.62-1.63.62-1.63,0-2.4-1.15-2.4-2.71v-.79c0-1.71.91-2.69,2.4-2.69.79,0,1.31.25,1.63.7v-2.88ZM4.74,37.74v-.88c0-1.13-.55-1.82-1.54-1.82s-1.54.68-1.54,1.82v.79c0,1.02.52,1.85,1.54,1.85s1.54-.77,1.54-1.76Z"></path>
    <path class="st0" d="M11.63,39.36c-.42.73-1.06,1.01-2.1,1.01-1.61,0-2.57-1.04-2.57-2.71v-.79c0-1.7.8-2.69,2.37-2.69s2.37.97,2.37,2.69v.62h-3.79v.17c0,1.03.49,1.85,1.54,1.85.78,0,1.17-.23,1.43-.67l.74.53ZM7.92,36.65h2.82c-.05-1.01-.49-1.61-1.4-1.61s-1.36.61-1.42,1.61Z"></path>
    <path class="st0" d="M16.49,35.68c-.32-.42-.66-.61-1.49-.61-.71,0-1.16.28-1.16.8,0,.68.6.89,1.39.95,1.13.08,2.16.41,2.16,1.79,0,1.04-.71,1.76-2.25,1.76-1.22,0-1.86-.37-2.32-1l.71-.5c.32.43.76.61,1.62.61.8,0,1.28-.31,1.28-.85,0-.65-.38-.88-1.55-.96-1.01-.07-2-.48-2-1.79,0-1,.72-1.7,2.15-1.7.97,0,1.71.25,2.18,1l-.72.5Z"></path>
    <path class="st0" d="M27.29,40.27l-2.78-4.13-1.52,1.87v2.25h-1.03v-8.28h1.03v4.45l3.6-4.45h1.33l-2.72,3.32,3.33,4.95h-1.24Z"></path>
    <path class="st0" d="M32.62,35.57c-.25-.35-.56-.5-1.01-.5-.73,0-1.28.55-1.28,1.45v3.75h-.96v-6h.96v.59c.25-.42.66-.68,1.39-.68.82,0,1.33.28,1.72.82l-.82.58Z"></path>
    <path class="st0" d="M38.46,39.36c-.42.73-1.06,1.01-2.1,1.01-1.61,0-2.57-1.04-2.57-2.71v-.79c0-1.7.8-2.69,2.37-2.69s2.37.97,2.37,2.69v.62h-3.79v.17c0,1.03.49,1.85,1.54,1.85.78,0,1.17-.23,1.43-.67l.74.53ZM34.75,36.65h2.82c-.05-1.01-.49-1.61-1.4-1.61s-1.36.61-1.41,1.61Z"></path>
    <path class="st0" d="M40.07,31.99h1.08v1.08h-1.08v-1.08ZM40.13,34.27h.96v6h-.96v-6Z"></path>
    <path class="st0" d="M46.2,35.68c-.32-.42-.66-.61-1.49-.61-.71,0-1.16.28-1.16.8,0,.68.6.89,1.39.95,1.13.08,2.16.41,2.16,1.79,0,1.04-.71,1.76-2.25,1.76-1.22,0-1.86-.37-2.32-1l.71-.5c.32.43.76.61,1.62.61.8,0,1.28-.31,1.28-.85,0-.65-.38-.88-1.55-.96-1.01-.07-2-.48-2-1.79,0-1,.72-1.7,2.15-1.7.97,0,1.71.25,2.18,1l-.72.5Z"></path>
    <path class="st0" d="M52.79,39.36c-.42.73-1.06,1.01-2.1,1.01-1.61,0-2.57-1.04-2.57-2.71v-.79c0-1.7.8-2.69,2.37-2.69s2.37.97,2.37,2.69v.62h-3.79v.17c0,1.03.49,1.85,1.54,1.85.78,0,1.17-.23,1.43-.67l.74.53ZM49.08,36.65h2.82c-.05-1.01-.49-1.61-1.4-1.61s-1.36.61-1.42,1.61Z"></path>
    <path class="st0" d="M57.65,35.68c-.32-.42-.66-.61-1.49-.61-.71,0-1.16.28-1.16.8,0,.68.6.89,1.39.95,1.13.08,2.16.41,2.16,1.79,0,1.04-.71,1.76-2.25,1.76-1.22,0-1.86-.37-2.32-1l.71-.5c.32.43.76.61,1.62.61.8,0,1.28-.31,1.28-.85,0-.65-.38-.88-1.55-.96-1.01-.07-2-.48-2-1.79,0-1,.72-1.7,2.15-1.7.97,0,1.71.25,2.18,1l-.72.5Z"></path>
    <path class="st0" d="M68.72,31.99v8.28h-1.01l-3.57-6.26v6.26h-1.03v-8.28h.98l3.6,6.32v-6.32h1.03Z"></path>
    <path class="st0" d="M75.21,37.66c0,1.56-.77,2.71-2.49,2.71-1.6,0-2.5-1.06-2.5-2.71v-.79c0-1.7.92-2.69,2.5-2.69s2.49.97,2.49,2.69v.79ZM74.26,37.66v-.79c0-1.14-.55-1.82-1.54-1.82s-1.54.7-1.54,1.82v.79c0,1.03.43,1.85,1.54,1.85,1.02,0,1.54-.83,1.54-1.85Z"></path>
    <path class="st0" d="M79.73,35.57c-.25-.35-.56-.5-1.01-.5-.73,0-1.28.55-1.28,1.45v3.75h-.96v-6h.96v.59c.25-.42.66-.68,1.39-.68.82,0,1.33.28,1.72.82l-.82.58Z"></path>
    <path class="st0" d="M84.94,31.99h.96v8.28h-.96v-.53c-.32.42-.84.62-1.63.62-1.63,0-2.4-1.15-2.4-2.71v-.79c0-1.71.91-2.69,2.4-2.69.79,0,1.31.25,1.63.7v-2.88ZM84.94,37.74v-.88c0-1.13-.55-1.82-1.54-1.82s-1.54.68-1.54,1.82v.79c0,1.02.52,1.85,1.54,1.85s1.54-.77,1.54-1.76Z"></path>
    <path class="st0" d="M87.7,34.27v-.43c0-1.25.41-1.85,1.82-1.85h.28v.91h-.24c-.8,0-.9.35-.9,1.18v.19h1.14v.86h-1.14v5.13h-.96v-5.13h-.77v-.86h.77Z"></path>
    <path class="st0" d="M94.13,35.57c-.25-.35-.56-.5-1.01-.5-.73,0-1.28.55-1.28,1.45v3.75h-.96v-6h.96v.59c.25-.42.66-.68,1.39-.68.82,0,1.33.28,1.72.82l-.82.58Z"></path>
    <path class="st0" d="M95.72,31.99h1.08v1.08h-1.08v-1.08ZM95.79,34.27h.96v6h-.96v-6Z"></path>
    <path class="st0" d="M102.85,39.36c-.42.73-1.06,1.01-2.1,1.01-1.61,0-2.57-1.04-2.57-2.71v-.79c0-1.7.8-2.69,2.37-2.69s2.37.97,2.37,2.69v.62h-3.79v.17c0,1.03.49,1.85,1.54,1.85.78,0,1.17-.23,1.43-.67l.74.53ZM99.14,36.65h2.82c-.05-1.01-.49-1.61-1.4-1.61s-1.36.61-1.42,1.61Z"></path>
    <path class="st0" d="M107.71,35.68c-.32-.42-.66-.61-1.49-.61-.71,0-1.16.28-1.16.8,0,.68.6.89,1.39.95,1.13.08,2.16.41,2.16,1.79,0,1.04-.71,1.76-2.25,1.76-1.22,0-1.86-.37-2.32-1l.71-.5c.32.43.76.61,1.62.61.8,0,1.28-.31,1.28-.85,0-.65-.38-.88-1.55-.96-1.01-.07-2-.48-2-1.79,0-1,.72-1.7,2.15-1.7.97,0,1.71.25,2.18,1l-.72.5Z"></path>
    <path class="st0" d="M109.93,31.99h.96v6.19c0,.65.04,1.2,1.02,1.2v.89c-1.51,0-1.98-.6-1.98-1.85v-6.43Z"></path>
    <path class="st0" d="M115.16,36.8h1.43v-.7c0-.85-.4-1.04-1.33-1.04-.72,0-1.1.06-1.44.61l-.72-.5c.42-.7,1.03-1,2.17-1,1.52,0,2.28.49,2.28,1.93v4.16h-.96v-.59c-.34.55-.74.68-1.52.68-1.39,0-2.15-.68-2.15-1.85,0-1.3.92-1.72,2.24-1.72ZM116.59,37.62h-1.43c-.95,0-1.28.32-1.28.92,0,.67.48.94,1.19.94.89,0,1.52-.17,1.52-1.51v-.35Z"></path>
    <path class="st0" d="M119.11,34.27h.96v.59c.3-.46.72-.68,1.61-.68,1.28,0,2.18.67,2.18,2.35v3.74h-.96v-3.73c0-1.21-.66-1.48-1.37-1.48-.9,0-1.46.64-1.46,1.46v3.74h-.96v-6Z"></path>
    <path class="st0" d="M129.15,31.99h.96v8.28h-.96v-.53c-.32.42-.84.62-1.63.62-1.63,0-2.4-1.15-2.4-2.71v-.79c0-1.71.91-2.69,2.4-2.69.79,0,1.31.25,1.63.7v-2.88ZM129.15,37.74v-.88c0-1.13-.55-1.82-1.54-1.82s-1.54.68-1.54,1.82v.79c0,1.02.52,1.85,1.54,1.85s1.54-.77,1.54-1.76Z"></path>
    <path class="st0" d="M84.11,44.99h1.08v1.08h-1.08v-1.08ZM84.17,47.27h.96v6h-.96v-6Z"></path>
    <path class="st0" d="M86.87,47.27h.96v.59c.3-.46.72-.68,1.61-.68,1.28,0,2.18.67,2.18,2.35v3.74h-.96v-3.73c0-1.21-.66-1.48-1.37-1.48-.9,0-1.46.64-1.46,1.46v3.74h-.96v-6Z"></path>
    <path class="st0" d="M97.45,48.52h3.55v-3.53h1.03v8.28h-1.03v-3.81h-3.55v3.81h-1.03v-8.28h1.03v3.53Z"></path>
    <path class="st0" d="M108.59,53.27h-.96v-.59c-.3.46-.72.68-1.61.68-1.28,0-2.18-.67-2.18-2.35v-3.74h.96v3.73c0,1.21.66,1.48,1.37,1.48.9,0,1.46-.64,1.46-1.46v-3.74h.96v6Z"></path>
    <path class="st0" d="M113.52,48.68c-.32-.42-.66-.61-1.49-.61-.71,0-1.16.28-1.16.8,0,.68.6.89,1.39.95,1.13.08,2.16.41,2.16,1.79,0,1.04-.71,1.76-2.25,1.76-1.22,0-1.86-.37-2.32-1l.71-.5c.32.43.76.61,1.62.61.8,0,1.28-.31,1.28-.85,0-.65-.38-.88-1.55-.96-1.01-.07-2-.48-2-1.79,0-1,.72-1.7,2.15-1.7.97,0,1.71.25,2.18,1l-.72.5Z"></path>
    <path class="st0" d="M120.49,53.27h-.96v-.59c-.3.46-.72.68-1.61.68-1.28,0-2.18-.67-2.18-2.35v-3.74h.96v3.73c0,1.21.66,1.48,1.37,1.48.9,0,1.46-.64,1.46-1.46v-3.74h.96v6Z"></path>
    <path class="st0" d="M122.05,47.27h.96v.59c.26-.41.72-.68,1.49-.68s1.41.32,1.75.95c.41-.64,1.07-.95,1.8-.95,1.28,0,2.06.79,2.06,2.35v3.74h-.96v-3.73c0-1.09-.54-1.48-1.25-1.48-.77,0-1.34.61-1.34,1.46v3.74h-.96v-3.73c0-1.09-.54-1.48-1.25-1.48-.78,0-1.34.64-1.34,1.46v3.74h-.96v-6Z"></path>
    <path class="st0" d="M73.17,60.75v.81h-2.46v1.46h2.21v.8h-2.21v1.66h2.46v.8h-3.38v-5.52h3.38Z"></path>
    <path class="st0" d="M78.58,60.75v3.28c0,1.63-.84,2.31-2.06,2.31s-2.06-.68-2.06-2.3v-3.29h.93v3.29c0,1.06.38,1.5,1.14,1.5s1.13-.44,1.13-1.5v-3.29h.93Z"></path>
    <path class="st0" d="M83.26,66.27l-1.06-2.24h-1.07v2.24h-.93v-5.52h1.88c1.27,0,2.03.55,2.03,1.65,0,.76-.36,1.25-1,1.48l1.18,2.39h-1.02ZM82.01,63.23c.78,0,1.17-.21,1.17-.83s-.38-.84-1.17-.84h-.89v1.67h.89Z"></path>
    <path class="st0" d="M87.31,66.34c-1.23,0-2.06-.74-2.06-2.48v-.7c0-1.73.83-2.48,2.06-2.48s2.07.74,2.07,2.48v.7c0,1.74-.83,2.48-2.07,2.48ZM86.17,63.86c0,1.19.4,1.67,1.13,1.67s1.14-.48,1.14-1.67v-.7c0-1.19-.41-1.67-1.14-1.67s-1.13.48-1.13,1.67v.7Z"></path>
    <path class="st0" d="M91.7,64.25v2.02h-.93v-5.52h1.88c1.27,0,2.03.61,2.03,1.74s-.75,1.76-2.03,1.76h-.95ZM92.55,63.46c.85,0,1.2-.33,1.2-.96s-.35-.94-1.2-.94h-.86v1.9h.86Z"></path>
    <path class="st0" d="M94.91,66.27l1.92-5.52h.88l1.92,5.52h-.98l-.38-1.14h-1.99l-.37,1.14h-.99ZM96.53,64.33h1.47l-.74-2.23-.74,2.23Z"></path>
    <path class="st0" d="M103.53,62.09c-.27-.38-.57-.6-1.19-.6-.57,0-.9.26-.9.72,0,.53.42.74,1.18.9,1.11.24,1.69.66,1.69,1.65,0,.82-.55,1.58-1.88,1.58-.94,0-1.61-.29-2.06-.9l.73-.5c.33.39.66.6,1.29.6.76,0,1-.34,1-.74,0-.44-.25-.71-1.21-.92-1.06-.22-1.66-.74-1.66-1.67,0-.83.54-1.53,1.84-1.53.88,0,1.5.3,1.89.9l-.7.5Z"></path>
    <path class="st0" d="M108.59,62.46c-.14-.67-.5-.98-1.11-.98-.74,0-1.13.48-1.13,1.67v.7c0,1.18.4,1.67,1.13,1.67.63,0,.97-.3,1.11-.98h.89c-.18,1.24-.9,1.78-2,1.78-1.23,0-2.06-.74-2.06-2.48v-.7c0-1.73.83-2.48,2.06-2.48,1.1,0,1.82.58,2.01,1.78h-.9Z"></path>
    <path class="st0" d="M111.67,63.02h2.11v-2.26h.93v5.52h-.93v-2.45h-2.11v2.45h-.93v-5.52h.93v2.26Z"></path>
    <path class="st0" d="M120.45,60.75v3.28c0,1.63-.84,2.31-2.06,2.31s-2.06-.68-2.06-2.3v-3.29h.93v3.29c0,1.06.38,1.5,1.14,1.5s1.13-.44,1.13-1.5v-3.29h.93Z"></path>
    <path class="st0" d="M122.99,65.47h2.45v.8h-3.38v-5.52h.93v4.72Z"></path>
    <path class="st0" d="M129.87,60.75v.81h-2.46v1.46h2.21v.8h-2.21v1.66h2.46v.8h-3.38v-5.52h3.38Z"></path>
  </g>
</svg>
